/* XPM */
static char *result[] = {
/* columns rows colors chars-per-pixel */
"64 64 26 1 ",
"  c #0B280F",
". c #2E4D17",
"X c #1A3612",
"o c #2F4911",
"O c #441521",
"+ c #EE6C76",
"@ c #DD3062",
"# c #D88F57",
"$ c #A81F3D",
"% c #FEC28E",
"& c black",
"* c white",
"= c #5F3E1D",
"- c #FEDABB",
"; c #88563D",
": c #E83753",
"> c #B8121C",
", c #4F153D",
"< c #944893",
"1 c #CF7BB9",
"2 c #680E68",
"3 c #151436",
"4 c #203F6E",
"5 c #2F648E",
"6 c #A58B74",
"7 c #392526",
/* pixels */
" . .XX    Xoo           . .   XXX      XX. .XXo  X. .   X X  oo ",
"o oXX. .   XX . .XX. .Xo o OOOOOOO .   XX o oX   o oX    X X  XX",
" oXX  o o    o oXXo o o o O++++@@@OO       o      oXX  . .X  XXX",
"       o o  o o XX o   oOO++++@+++++OO .   XXX          o o . . ",
"XX. . X o    o         O@++++++++++++OO     XXX . .X   XXo oXo o",
"oXXo o X o       . .XXXO+++@@O+@@+++++O  . . XXo oX X   XXo   o ",
"  XX. .     . .   o oXO+++@OO@+O@+++++@OXXo o X o  . .   XX   Xo",
"     o   X X . X  Xo XO++@O#O$+OO@+++++O XXo        o o    . .X ",
" .    . X X   X X XX O++@O#%O$@OO@+++++@O XX   . .   o X Xo oX .",
"o oX   X X . . X  . .O++O#%%OO@O%O@++++@O  . .  . X   X X  o    ",
" o XX   X o oX     o O++O%&&%O$O&&@@++++@O  o o  X. .X . .      ",
"   X. .    .X  X X  oO@+&&*=%O$O*=&&++++@O XXo   o o  X o o XXX ",
".  o o   XXX  . .XX XO@+O%==%-OO==O@@++++OXXX     o      o oXX. ",
"  . .    XX  o o XX  O++O%;;%-%%;;#O@@@++OXX     XX. .    o Xo o",
"XX o   . .  . .XX . .O++O%%%--%%%%%%O@@++O    . . XXo o   XX  o ",
" X.X    o o  oXX   o O++O%----%----%#O$@+O   o o   XXo o        ",
"  XX     o  XXX   XXoO++O%---------%%O$@+O Xo oX. . XXo   . .XX ",
"       XXX  XX     XXO+@O#--:::%---%#O$@+OX  o X o o   o   o oXX",
" . .    XXX . .     XO+@$O--->>>---##O$@+O. o   XXo         o XX",
"o oXXX. .XXX o o     O+@$O#-------#%#O$@+O      XXX   X. .X X   ",
" .XXXo o  . . . .   O$+@$OX#-----#%%#O$@+OXX    . .  Xo o  X X  ",
" XXX. .    o o o  XoO++@$O O#####%%%%O$@+$O .X   o oXX o    X X ",
".XX  oXXX   . XXX   O+@$$O##%%%%%%%%%O$@+@OoX     o oX   . . X. ",
"     XX. .   XXX   O@+@$O,%%%%%%%%%%%O$@++O  . .XX o    o o  o o",
" . . XX o o XXX    O@+$$O,%%%%%%%%%%%O$@++O   o o   oXXo o  o o ",
"XXo o    . .XX. .XoO+@$O<,---%%%%%---O$$@+O  XXo   XXX  oX X o X",
"XXX.      o  o oXXO@+$$O<,%---%%%---%O$$@@@O XX    XX  oX X     ",
" XXX      XX. .XXO@@$$O<<<,%--%%#--%%,O$$@@$OO    . .  X X . .  ",
" . .   . . X o  O$$$OO<<11<,%-##-%%,,11O$$$OO .  XXo o  X   o o ",
"  o o XXo o XXX  OOOX,<11111,%%#%,,11111OOO# oXX  XXo o    XXo o",
"   . .XX .   . .  o  ,<11111<,%#,<111111<<,#o XX. .XXo  . .XX o ",
"    o X     o o      ,2<111<<<,,,<11111<<2,#   o o  XXoXXo o   o",
" .  XX . .XX o XXX   ,22<<<<2,,2,2<<<<<<2,%#X   o       XXo  X X",
"o o   o oXX   XXX. . #,22222,,222,,22222,%-#    XXX  . . XX X X ",
" o   . .XX    XX  o o#%,,,,,22<<222,,,,,#%-# . .XX  o o    X. . ",
" XXX  oXX   . .    o #-%,222<<<<<<<2222,#%-# Xo o  o oXX   o o  ",
"  XXX.     o o  XXX o#-%#,2<<<<<<<<<<22,#%-#.XXo o  oXX   o o   ",
" . .XX XXX. .X   XXX #-%#,2<<<<<<<<<<22,X#%-#   o  XX. .   o X X",
"X o oX .X  oX X . .XX#-%#,2<<<<<<<<<<22,o#%-#X     Xo o  XXX  X ",
"X  . .    .  X   o o#-%%#,222<<<<<<222333#%-#XX      o    X X. .",
"    o   X X . .   . #-%# 3322222222233443#%-# .  X X     . .X o ",
"X  X . X X   o o XXX#-%#344333333333444443%%#o oX X . .Xo o   Xo",
" .X X X X     . XXX #-%#344444444444455443%%# o  X o oX  o   X X",
"o oX  . . . .   XX .#%%#3455555555555554443%# X   o o  X X  X X ",
" o   o o   o oX   o #%%34554555555555555443%-# X   oX   X . .X  ",
" XXX. .     . .X . .#%%34554555555555455443%%#X X oX X. .  o o  ",
"  XX o  XXX  o XX o#%%#34445555545555544443#%-#X    Xo o    o X ",
".. XXX XXX    .XX #-%# 34555555434555555443X#%-#.     o    XXX .",
"o   . .          #-## o3455555543445555543X X#%-#X            o ",
"  Xo o   . . X  .##    3455555443345555443 Xo ### .  . .   X o o",
"    oX  o o X     o  X X34555543 344555443   o o oX o o   X X o ",
"    XXX. . X     o o  X 34555443o344555443X     o  o oX. . X    ",
"X. . XX o   . .XX o    X34555443 344555443. . XXX   oX  o o   XX",
"  o o      o oXX    XX. 34555443  34555443Xo oXX   oX    o o . .",
"o Xo o      oXX    XXo o3455443XX 3455543   o o   X    XXXo X o ",
"   Xo  . .X XX     Xo o 3455443X  3445543.   o     . .  XXX  X o",
"    XX Xo o  . .     o  3445443. .X345543 X X o     o o  X. .   ",
". .    XXo  o o XXX o   o34443o oX 345443  XX        o   o o    ",
" o         o o    XX   o 34443 o  X 34443  . .   . .    o o XX. ",
"     . .    o    . .    o3443       34443Xo o   o o   XX o   o o",
"X   o o    oXX    o o XX&&333   . . 3333&  o   o o   X X  XXX o ",
"   o o      X. .  Xo oX&66677&   o &66777&      o   X . .   XX X",
"    o    . . Xo oXXXo &677777&o   &677777&XX. .XX    X o o . .  ",
"   o     Xo o Xo XX   &&&&&&&o X  &&&&&&& .  o o   . . Xo   o o "
};
