/* XPM */
static char *result[] = {
/* columns rows colors chars-per-pixel */
"64 64 26 1 ",
"  c #0B280F",
". c #2E4D17",
"X c #1A3612",
"o c #2F4911",
"O c #441521",
"+ c #EE6C76",
"@ c #DD3062",
"# c #D88F57",
"$ c #A81F3D",
"% c #FEC28E",
"& c black",
"* c white",
"= c #5F3E1D",
"- c #FEDABB",
"; c #88563D",
": c #E83753",
"> c #B8121C",
", c #4F153D",
"< c #944893",
"1 c #CF7BB9",
"2 c #680E68",
"3 c #151436",
"4 c #203F6E",
"5 c #2F648E",
"6 c #A58B74",
"7 c #392526",
/* pixels */
" . .XX    Xoo           . .   XXX      XX. .XXo  X. .   X X  oo ",
"o oXX. .   XX . .XX. .Xo o  OOOOOOO.   XX o oX   o oX    X X  XX",
" oXX  o o    o oXXo o o o  O++++@@@OO      o      oXX  . .X  XXX",
"       o o  o o XX o   oXOO++++@+++++OO.   XXX          o o . . ",
"XX. . X o    o          O@++++++++++++OO    XXX . .X   XXo oXo o",
"oXXo o X o       . .XXX O+++@@O+@@+++++O . . XXo oX X   XXo   o ",
"  XX. .     . .   o oX O+++@OO@+O@+++++@OXo o X o  . .   XX   Xo",
"     o   X X . X  Xo X O++@O#O$+OO@+++++OXXo        o o    . .X ",
" .    . X X   X X XX  O++@O#%O$@OO@+++++@OXX   . .   o X Xo oX .",
"o oX   X X . . X  . . O++O#%%OO@O%O@++++@O . .  . X   X X  o    ",
" o XX   X o oX     o oO++O%&&%O$O&&@@++++@O o o  X. .X . .      ",
"   X. .    .X  X X  o O@+&&*=%O$O*=&&++++@OXXo   o o  X o o XXX ",
".  o o   XXX  . .XX XoO@+O%==%-OO==O@@++++OXX     o      o oXX. ",
"  . .    XX  o o XX   O++O%;;%-%%;;#O@@@++OX     XX. .    o Xo o",
"XX o   . .  . .XX . . O++O%%%--%%%%%%O@@++O   . . XXo o   XX  o ",
" X.X    o o  oXX   o oO++O%----%----%#O$@+O  o o   XXo o        ",
"  XX     o  XXX   XXo O++O%---------%%O$@+OXo oX. . XXo   . .XX ",
"       XXX  XX     XXXO+@O#--:::%---%#O$@+O  o X o o   o   o oXX",
" . .    XXX . .     XXO+@$O--->>>---#OO$@+O o   XXo         o XX",
"o oXXX. .XXX o o     .O+@$O#-------##OO$@+O     XXX   X. .X X   ",
" .XXXo o  . . . .   oO$+@$OO#-----#%#OO$@+OX    . .  Xo o  X X  ",
" XXX. .    o o o  Xo O++@$OO######%%%#O$@+$O.X   o oXX o    X X ",
".XX  oXXX   . XXX   oO+@$$O#%%%%%%%%%%O$@+@OX     o oX   . . X. ",
"     XX. .   XXX    O@+@$O%%%%%%%%%%%%O$@++O . .XX o    o o  o o",
" . . XX o o XXX    .O@+$$O---%%%%%---%O$@++O  o o   oXXo o  o o ",
"XXo o    . .XX. .Xo O+@$O,%---%%%---%,O$$@+O XXo   XXX  oX X o X",
"XXX.      o  o oXX O@+$$O<,%--%%#--%%,O$$@@@OXX    XX  oX X     ",
" XXX      XX. .XX O@@$$O11<,%-##-%%,,11O$$@@$OO   . .  X X . .  ",
" . .   . . X o  .O$$$OO11111,%%#%,,11111O$$$OO.  XXo o  X   o o ",
"  o o XXo o XXX  oOOO,<11111<,%#,<111111<OOO oXX  XXo o    XXo o",
"   . .XX .   . .  o  ,2<111<<<,,,<11111<<2,#o XX. .XXo  . .XX o ",
"    o X     o o      ,22<<<<2,,2,2<<<<<<2,%#   o o  XXoXXo o   o",
" .  XX . .XX o XXX   #,22222,,222,,22222,%%#X   o       XXo  X X",
"o o   o oXX   XXX. . #%,,,,,2222222,,,,,#%-#    XXX  . . XX X X ",
" o   . .XX    XX  o o#%%,22222<<<<22222,#%-# . .XX  o o    X. . ",
" XXX  oXX   . .    o #-%,22<<<<<<<<<<22,#%-# Xo o  o oXX   o o  ",
"  XXX.     o o  XXX o#-%#,2<<<<<<<<<<22,#%-#.XXo o  oXX   o o   ",
" . .XX XXX. .X   XXX #-%#,2<<<<<<<<<<22,X#%-#   o  XX. .   o X X",
"X o oX .X  oX X . .XX#-%#,2<<<<<<<<<<22,o#%-#X     Xo o  XXX  X ",
"X  . .    .  X   o oX#-%#,22<<<<<<<<22,, #%-#XX      o    X X. .",
"    o   X X . .   . #-%%#,222<<<<<<222333#%-# .  X X     . .X o ",
"X  X . X X   o o XXX#-%# 3322222222233443#%-#o oX X . .Xo o   Xo",
" .X X X X     . XXX #-%#344333333333444443%-# o  X o oX  o   X X",
"o oX  . . . .   XX .#-%#344444444444455443%%# X   o o  X X  X X ",
" o   o o   o oX   o #%%#3455555555555554443%#X X   oX   X . .X  ",
" XXX. .     . .X . .#%%34554555555555555443%%#X X oX X. .  o o  ",
"  XX o  XXX  o XX oX#%%34554555555555455443%%# X    Xo o    o X ",
".. XXX XXX    .XX ##%%#34445555545555544443#%-##.     o    XXX .",
"o   . .          #--%#o34555555434555555443 #%--#X            o ",
"  Xo o   . . X  .####  3455555543445555543 Xo#### .  . .   X o o",
"    oX  o o X     o  X 3455555443345555443   o o oX o o   X X o ",
"    XXX. . X     o o  X 34555543o344555443X     o  o oX. . X    ",
"X. . XX o   . .XX o    X34555443 344555443. . XXX   oX  o o   XX",
"  o o      o oXX    XX. 34555443  34555443Xo oXX   oX    o o . .",
"o Xo o      oXX    XXo o3455443XX 3455543   o o   X    XXXo X o ",
"   Xo  . .X XX     Xo o 3455443X  3445543.   o     . .  XXX  X o",
"    XX Xo o  . .     o  3445443. .X345543 X X o     o o  X. .   ",
". .    XXo  o o XXX o   o34443o oX 345443  XX        o   o o    ",
" o         o o    XX   o 34443 o  X 34443  . .   . .    o o XX. ",
"     . .    o    . .    o3443       34443Xo o   o o   XX o   o o",
"X   o o    oXX    o o XX&&333   . . 3333&  o   o o   X X  XXX o ",
"   o o      X. .  Xo oX&66677&   o &66777&      o   X . .   XX X",
"    o    . . Xo oXXXo &677777&o   &677777&XX. .XX    X o o . .  ",
"   o     Xo o Xo XX   &&&&&&&o X  &&&&&&& .  o o   . . Xo   o o "
};
