/* XPM */
static char *result[] = {
/* columns rows colors chars-per-pixel */
"64 64 186 2 ",
"   c #000001",
".  c #251D08",
"X  c #0B280F",
"o  c #15240D",
"O  c #0E2714",
"+  c #0B2A13",
"@  c #17261D",
"#  c #1A3612",
"$  c #27230A",
"%  c #3C2B0D",
"&  c #35260B",
"*  c #2C3018",
"=  c #1B1F2B",
"-  c #1F1D32",
";  c #152221",
":  c #192028",
">  c #0C3122",
",  c #09392D",
"<  c #163924",
"1  c #012A34",
"2  c #0A3B36",
"3  c #042A29",
"4  c #242A2A",
"5  c #2F3F23",
"6  c #323921",
"7  c #282534",
"8  c #272731",
"9  c #353234",
"0  c #3D3D3E",
"q  c #37293E",
"w  c #483514",
"e  c #2F4B13",
"r  c #294B1F",
"t  c #124336",
"y  c #314126",
"u  c #22453B",
"i  c #31552B",
"p  c #56401A",
"a  c #575B38",
"s  c #715936",
"d  c #2A1744",
"f  c #2E154C",
"g  c #301D45",
"h  c #321B4A",
"j  c #351355",
"k  c #3B1856",
"l  c #38115A",
"z  c #380F5C",
"x  c #0A3E4B",
"c  c #1E2A48",
"v  c #382647",
"b  c #362B41",
"n  c #3E0C67",
"m  c #3F0D69",
"M  c #3C1465",
"N  c #32277A",
"B  c #420E6C",
"V  c #47146D",
"C  c #450F70",
"Z  c #461072",
"A  c #491176",
"S  c #4D157A",
"D  c #50177E",
"F  c #50187E",
"G  c #55266B",
"H  c #5E3170",
"J  c #572276",
"K  c #602D76",
"L  c #623474",
"P  c #114844",
"I  c #195248",
"U  c #094A59",
"Y  c #0C494C",
"T  c #3E5547",
"R  c #2F5054",
"E  c #09566B",
"W  c #0A5467",
"Q  c #0F5F75",
"!  c #12546B",
"~  c #196675",
"^  c #1C6879",
"/  c #1C6167",
"(  c #326672",
")  c #435141",
"_  c #715E46",
"`  c #5F6F52",
"'  c #7C734D",
"]  c #71466C",
"[  c #754A76",
"{  c #7E547B",
"}  c #7C526E",
"|  c #51726F",
" . c #557774",
".. c #666667",
"X. c #886D49",
"o. c #8C714C",
"O. c #8A666C",
"+. c #8B647C",
"@. c #8A7A61",
"#. c #A47F71",
"$. c #8C815E",
"%. c #A4865F",
"&. c #908168",
"*. c #9B8760",
"=. c #BD9C74",
"-. c #B59978",
";. c #A78E6C",
":. c #BEA47E",
">. c #C7A67D",
",. c #2C3889",
"<. c #4E1280",
"1. c #541A83",
"2. c #5A1E8A",
"3. c #5D208E",
"4. c #5E2190",
"5. c #602292",
"6. c #25418D",
"7. c #254896",
"8. c #1D768E",
"9. c #1F7991",
"0. c #217A93",
"q. c #347988",
"w. c #195CA1",
"e. c #2552A4",
"r. c #166FB3",
"t. c #4C7782",
"y. c #9F7A83",
"u. c #27829B",
"i. c #29869F",
"p. c #3A8394",
"a. c #2D8AA3",
"s. c #2B87A1",
"d. c #308EA8",
"f. c #3291AB",
"g. c #3D9BB5",
"h. c #498A9A",
"j. c #6B9299",
"k. c #6C9397",
"l. c #4A95A9",
"z. c #4F9BB0",
"x. c #488FA3",
"c. c #7096A1",
"v. c #6A98A4",
"b. c #4EA3BA",
"n. c #78B0BF",
"m. c #6CA5B5",
"M. c #0093C9",
"N. c #0890CF",
"B. c #00A1DD",
"V. c #0C97E1",
"C. c #00AAE9",
"Z. c #00B6FA",
"A. c #85989D",
"S. c #819398",
"D. c #9A9A9A",
"F. c #919796",
"G. c #BF9E8C",
"H. c #BE9E83",
"J. c #B39191",
"K. c #A58184",
"L. c #9EA49F",
"P. c #AFAB98",
"I. c #95A7AC",
"U. c #98ABB1",
"Y. c #B2B2B2",
"T. c #A8A8A8",
"R. c #C4AA87",
"E. c #D4B48B",
"W. c #D8BB8E",
"Q. c #D7BA8D",
"!. c #CDB295",
"~. c #DBBE93",
"^. c #C7AB8D",
"/. c #CDBEA5",
"(. c #DFC395",
"). c #E2C79A",
"_. c #E6CB9F",
"`. c #E9CFA3",
"'. c #E7CCA1",
"]. c #ECD3A7",
"[. c #F0D7AD",
"{. c #F2DDBA",
"}. c #87B4C0",
"|. c #C3C3C3",
" X c #F6E7CE",
".X c white",
/* pixels */
"X e X e # # X X X X # e e X X X X X X X X X X X e X e X X X # # # X X X X X X # # e X e # # e X X # e X e + X X # X # X X e e X ",
"e X e # # e X e X X X # # X e X e # # e X e # e X e X X X X X # # e X e X X X # # X e X e # X X X e X e # X X X X # X # X X # # ",
"X e # # X X e X e X X X X e X e # # e X e X e X e X X X X X X X e X e X X X X X X X X e X X X X X X e # # X X e X e # X X # # # ",
"X X X X X X X e X e X X e X e X # # X e X X X e # # X X X X X X X e # # # e X e X X X # # # X X X X X X X X X X e X e X e X e X ",
"# # e X e X # X e X X X X e X X X X X X X X X X # # X X e X e X X X X # e X e X X X X X # # # X e X e # X X X # # e X e # e X e ",
"e # # e X e X # X e X X X X X X X e X e # # # X X X X # # e X e X X X e X e # X X e X e X # # e X e # X # X X X # # e X + X e X ",
"X X # # e X e X X X X X e X e X X X e X e # X X e X e # # X e X e # # X e # # X # # e X e X # X e X X e X e X X X # # X X X # e ",
"X X X X X e X X X # X j n v X # X X # e X # X e X e # # X X X e X # X X X X X X X # # e X X X X X X X X e X e X X X X e X e # X ",
"+ e X X X X e X # X # j B f 4 @ # X # # X X X X e X X X d d d g g v d v = @ ; ; ; X # # X X X e X e X X X e X # X # e X e # X e ",
"e X e # X X + # X # X 5 ; q n n X X e + e X X X X : j k n n n B n n n n n n n n n X + e X e X X e X # X X X # X # X X e X X X X ",
"X e X # # X X X # X e = 9 h n n X X + e + e # 8 - d n n Z 5.5.5.5.5.3.2.B n B n n n n n n n 9 X X # e X e # X e X e X X X X X X ",
"X X + # e X e X X ; ; k n B A A n n c t i 3 5 z B B A A 1.3.3.3.3.3.3.2.F D S S S n n n n n n n j e X e X X # X e X e X # # # X ",
"e X X e X e X X ; n n B B C A S n n w.C.V.n n B B Z F F F D D S D D D D D D S A A S C A C A B n z = 5 X X X X X X e X e # # e X ",
"X X e X e X X X ; n n 2.5.2.S A Z S w.N.r.n n S F F F F <.A A A A A A S S A A A S S A A A A Z Z B n n 5 o e X X X X e X # e X e ",
"# # X e X X X n n 1.5.5.1.1.D A A M.Z.e.M Z F F F F S Z A S A A A A A A A A D F F F F F S F S S A C B h v B z X X X # # X X e X ",
"X # e # X X X n n F 3.2.F S S A Z M.C.7.m m F F A A A A A <.<.<.D D S S S S S D F F F F 1.S F S S 4.5.C B z j e X X X X X X X X ",
"X X # # X X X f n B F F F B n ,.N.C.N m Z S 1.F A A S S <.<.<.<.F F F F F F D D F S A A A A A A A Z Z f g 8 e X X X e X e # # X ",
"X X X + X X X g n B F F A n n 6.B.C.n n A <.F F D D <.<.<.D F F F F F F F F F S F A n B A A C B B n n 5 X X X e X X X e X e # # ",
"X e X e X X X d n B F S n n y , ! ,.n A S F F F D D D D D D D F F F F S n n n n M V H V n n n n z 7 9 O X X X X X X X X e X # # ",
"e X e # # # e d n M S A l k @ e - B n 1.3.F F F D D D D D D D F F Z B B n n n n n +.(.{ n n z j h # # X X X # e X e # X # X X X ",
"+ e # # # 9 - b d f n n y X e X 9 n B 3.F A A A A A A D D D D S A B n n B n K.G.H.!._.H.;.O.X X e X e X X # e X e X X # X # X X ",
"X # # # e M n - X ; n n ; e + e - n F 5.S Z A A A A A A S S S B n G y.+.M M G.).~._.[.E.=.*.X X X e X e # # X e X X X X # X # X ",
"e # # X X k j 8 # X X X e + # # m m 2.2.A K :.=.G B B A A A A B n H (.^.L L P.^.G.R.G.:.=.*.X X X X e X e # X X X e X e X # e X ",
"X + X X X # # e + e X X X # # # n n 5.F A K =.=.G n B A A A A B n H '.'.[.[.*.        _ =.*.X e # # X e X X X X e X e X X e X e ",
"X e + e X # # X e X e X # # # : n n 5.F A K =.=.;.#.[ B n B n +.G.!.[.[.[.[.(.` 0     _ =.*.e X e X X X e # # e X e X X e X e X ",
"# # e + e X X X X e X e # # e - n n F F A K =.=.=.=.O.B n n n y.(.`.[.[.[.[. X.XD.    _ =.*.# e X X X # # # X X e # X # X e X # ",
"# # # e X X X X X X e X + e X 9 n n F F A K =.=.E.Q.H.#.#.n n G K 5.[.[.[.[. X.XD.    @.W.E.*.*.# X X # # X X e # X # X X X X X ",
"+ # # # X X X + X X # # e + e 8 n m F A A K =.=.Q.(.E.=.=.n n B n L [.[.[.[. X.XD.    &.(.W.=.=.y X e X e X X # o # X e X e X X ",
"X e X e X X X e X e X # X e X @ 9 m Z A A K =.=.Q.'._.(.~.B B [ y.J.[.[.[.[. X.XD.    &.).Q.=.=.y # # e X e X X # X X X e X e X ",
"X + e + e X # # e X e X # # # X X m n Z A K =.-.W.`.].].].B B y.(.`.[.[.[.[.{. X/.&.&.!.(.Q.=.=.e X # # e X e o X X X # # e X e ",
"X X X e X e # # X e X X X e X e X d n B A J O.O.R.E.E._.[.B B [ y.J.[.[.[.[.[.[.[.`.`._.W.>.' ' i o e # # e X X e X e # o X e X ",
"X X X X e X # X X X X X e X e X X X n m C A m n #.=.R._.[.G.H.] n H ).).).).).).).(.).Q.E.-.X e o e X X # # e # # e X e X X X e ",
"X e X X # # + e + e # # X e X # # # j z B C M j O.#.=.W.W.W.W.+.G ] ~.W.W.W.W.W.Q.Q.(.:.-.$.X X e X X X X X X X # # e X X # X # ",
"e X e X X X e + e # # X X X # # # e o q B B 8 e k V L =.=.=.=.=.=.=.=.=.=.=.=.=.=.=.=.a X X X X # # # X X e X e X # # X # X # X ",
"X e X X X e X e # # X X X X # # + X e d n n 8 X k B ] =.=.=.=.=.=.=.=.=.=.=.=.=.=.=.=.a X e X e # # X X e X e X X X X # e X e X ",
"X # # # X X e # # X X X e X e X X X X e X e X X F.Y.Y.Y.Y.Y.Y.Y.Y.Y.Y.Y.Y.Y.Y.Y.Y.# X X X # e X e X X e X e # # X X X e X e X X ",
"X X # # # e X X X X X e + e X X # # # X e X X X L.|.|.|.|.|.|.|.|.|.|.|.|.|.|.|.|.X e X e # # e X e X X e # # X X X e X e X X X ",
"X e + e # # X # # # e X e # X X X # # # X r U U t.x.z.z.z.z.z.z.z.z.z.z.z.b.U.|.|.T.I.` X X X X e X X # # e X e X X X e X # X # ",
"# X e X e # + e # X X e # X # X e X e # # > E E 0.u.d.d.f.A.A.A.A.c.a.d.a.g.n.|.|.|.|.` # # X X X X X # e X e X X # # # X X # X ",
"# X X e + e X X X X e X X # X X X e X e # > E E 0.u.x.v.c.D.D.D.D.F.j.j.i.f.b.m.n.v.v.R 3 > # X X X X X X e X X X X # X # e X e ",
"X X X X e X X X # X # X e X e + X X e X X > E E 0.s.h.D.D.T.T.T.T.T.T.T.x.d.f.f.b.1 1 1 1 3 e X X # X # X X X X X e X e # X e X ",
"# X X # X e X # X # X X X e X e X # # < 2 2 U U ! ! t.D.T.Y.Y.Y.Y.Y.Y.Y.( 7.^ ^ 9.1 1 U ^ / + e # X # X e X e # e X e X X X # e ",
"X e # X # X # X # X X X X X e X # # # Y E U 1 1 x 1 ) D.Y.Y.Y.Y.Y.Y.Y.Y.I 1 1 1 1 f.b.i.8.~ e X X # X e X e # X X e X X X # X # ",
"e X e # X X r X r X e X e X + X # # X I E U x x x x ( S.I.I.U.U.U.U.I.I.R x Y x Y f.g.a.9.~ # X X X e X e X X # X # X X # X # X ",
"X e X X X e X e X X X e X e # X X X e Y E Q s.s.f.f.s.8.0.0.f.f.d.d.8.8.0.d.f.f.d.f.g.s.9.^ X # X X X e # X X X # X e X e # X X ",
"X # # # e X e X X X X X e X e # X e X I E Q 0.s.f.f.s.8.0.i.f.f.f.a.8.8.u.d.f.f.f.f.g.s.8.~ # X # X e # X # e X e X X e X e X X ",
"X X # # X e X X # # # X X e X # # X e Y E Q s.s.d.f.s.0.8.0.d.d.f.a.8.8.u.i.a.f.f.8.8.8.8.~ X # X X X X # e X e X X X X e X # X ",
"e e X # # # X # # # X X X X e # # X + Y E Q 0.u.s.d.k.=.=.W.~.(.).Q.=.=.h.u.s.f.f.8.8.8.8.~ e X e X X X X X e X X X X # # # X e ",
"e X X X e X e X X X X X X X X X + t W W E ~ u.u.u.u.k.=.=.E.Q.(.(.Q.=.=.p.9.0.u.0.8.9.I < e X e # # X X X X X X X X X X X X e X ",
"X X # e X e X X X e + e X # X X e t E E E E Q Q Q Q | =.=.E.E.Q.(.~.=.=.q.8.9.0.8.8.8.I e X e X e X e X X e X e X X X # X e X e ",
"X X X X e # X X e X e X # X X X X > u > t t E W E E / | | >.>.>.R.=.s s a T ) ) T P 9 > X e X e X e # X e X e X X X # X # X e X ",
"X X X X # # # e X e X # X X X X X e X e X + t > * @ * 6 6 =.=.=.=.%.% % % w w w p . . o X X X X e X X e X e # e X e X # X X X X ",
"# e X e X # # X e X X X e X e # # X e X X X X # o . & & & X.X.X.o.X.& & & % % w w $ * o e X # # # X X X e # X X e X e X X X # # ",
"X X e X e X X X X X X e + e # # X X X X # # e X e # o . . % w % w w . . . . $ . . o # e X e # # X X X e # X X X X e X e X e X e ",
"e X # e X e X X X X X X e # # X X X X # # e X e X X o . . % & % w w . $ $ . $ . o X X X e X e X X X # X X X X # # # e X # X e X ",
"X X X # e X X e X e # X # # X X X X X # e X e X X X X X X . . . . . X X X # X e X e X X X e X X X X X e X e X X # # # X X # X e ",
"X X X X # # X # e X e X X e X e X X X X X e X X X e X e # . . . . $ # X X X e X e X # X # X e X X X X X e X e X X # e X e X X X ",
"e X e X X X X # # e X X e X e X # # # X e X X X e X e X X # e X e # X # X e X e X X X # # X X X X X X X X e X X X e X e X X X X ",
"X e X X X X X X X X X e X e X X X X # # X X X e X e # X X X X e X X # X X X e o X X X e X e X X X e X e X X X X e X e X # # e X ",
"X X X X X e X e X X X X e X X X X e X e X X X X e # X X X X X X X X X X X X X # X # e X e X X X e X e X X X # # X e X X X e X e ",
"# X X X e X e X X X X e # # X X X X e o e X # # # X X X X X X X e X e X X X # X # X X e X X X e X e X X X # X # X X # # # X e X ",
"X X X e X e X X X X X X # e X e X X # e X e # # X X # e X e X X X e X e X X X # X X X X X X X X e X X X # X e X e X X X # # X # ",
"X X X X e X X X X e X e X # e X e # # o e X X X X # # # e X e X X X e X e X X X X # # # e X e # # X X X X # X e X e X e X e X X ",
"X X X e X X X X X # e X e X # e X # # X X X X X X # # X X e X # X X X e X X X X e X e X X e X e X X X e X e X # e X X X e X e X "
};
