/* XPM */
static char *result[] = {
/* columns rows colors chars-per-pixel */
"64 64 225 2 ",
"   c #000001",
".  c #080809",
"X  c #1C1C1D",
"o  c #261C08",
"O  c #281D09",
"+  c #0B280F",
"@  c #0E270F",
"#  c #18220C",
"$  c #0D2713",
"%  c #0C2911",
"&  c #0B2E1A",
"*  c #12241C",
"=  c #142B15",
"-  c #1A3612",
";  c #1D321A",
":  c #193518",
">  c #0C301E",
",  c #2B220B",
"<  c #23230B",
"1  c #33260B",
"2  c #3C2B0E",
"3  c #332A0E",
"4  c #2C370D",
"5  c #3C2D11",
"6  c #253B1B",
"7  c #1C1F2C",
"8  c #1F1D31",
"9  c #251A3B",
"0  c #211C35",
"q  c #152221",
"w  c #192027",
"e  c #0B3427",
"r  c #193832",
"t  c #0C302F",
"y  c #212E22",
"u  c #242B29",
"i  c #2A3B21",
"p  c #333B27",
"a  c #292436",
"s  c #293B32",
"d  c #343232",
"f  c #493717",
"g  c #523D18",
"h  c #413B30",
"j  c #2F4B13",
"k  c #2E4818",
"l  c #324519",
"z  c #38521D",
"x  c #124136",
"c  c #104037",
"v  c #314224",
"b  c #274D2D",
"n  c #56401A",
"m  c #515433",
"M  c #735C3E",
"N  c #63523D",
"B  c #5F623C",
"V  c #79613F",
"C  c #2A1744",
"Z  c #2B1C40",
"A  c #2F154C",
"S  c #301D46",
"D  c #341A4C",
"F  c #390F5E",
"G  c #341255",
"H  c #37105A",
"J  c #3A135C",
"K  c #391956",
"L  c #063743",
"P  c #183D43",
"I  c #382449",
"U  c #25244F",
"Y  c #3E0D66",
"T  c #3F0C68",
"R  c #3B166C",
"E  c #1E3D6A",
"W  c #38237C",
"Q  c #410E6B",
"!  c #400F67",
"~  c #44116C",
"^  c #4C1A6B",
"/  c #401661",
"(  c #460F71",
")  c #461172",
"_  c #491276",
"`  c #4D157B",
"'  c #46197B",
"]  c #50187E",
"[  c #50177E",
"{  c #56276C",
"}  c #58306C",
"|  c #653773",
" . c #62366D",
".. c #4D3156",
"X. c #09454B",
"o. c #0C4656",
"O. c #0E525B",
"+. c #195556",
"@. c #104A50",
"#. c #36574D",
"$. c #28585C",
"%. c #2E504E",
"&. c #0B5262",
"*. c #09566B",
"=. c #14576B",
"-. c #3B5B63",
";. c #16667B",
":. c #2B6972",
">. c #685D47",
",. c #6A6744",
"<. c #787446",
"1. c #686851",
"2. c #79674D",
"3. c #7B506E",
"4. c #6D4177",
"5. c #754A76",
"6. c #794F76",
"7. c #717565",
"8. c #566B63",
"9. c #8A7855",
"0. c #825777",
"q. c #916D71",
"w. c #A37F71",
"e. c #64837D",
"r. c #8F8357",
"t. c #948466",
"y. c #8A8E79",
"u. c #A58F65",
"i. c #AC8B74",
"p. c #BD9C74",
"a. c #BC9E7B",
"s. c #B59474",
"d. c #AF926E",
"f. c #BCA379",
"g. c #C5A47B",
"h. c #C8A77F",
"j. c #33338A",
"k. c #4E1280",
"l. c #541A82",
"z. c #5A1E8A",
"x. c #5D208F",
"c. c #412A89",
"v. c #1B6D81",
"b. c #166C82",
"n. c #1D768D",
"m. c #1E7890",
"M. c #216E83",
"N. c #267488",
"B. c #337A8B",
"V. c #237C95",
"C. c #287F96",
"Z. c #1D6AB9",
"A. c #2160B1",
"S. c #2D49A0",
"D. c #2074C6",
"F. c #157FCB",
"G. c #9C7784",
"H. c #926C81",
"J. c #A37F85",
"K. c #27839C",
"L. c #29849D",
"P. c #3A879C",
"I. c #2C89A2",
"U. c #2B87A1",
"Y. c #318FA9",
"T. c #358CA4",
"R. c #3391AB",
"E. c #3B90A7",
"W. c #3A98B2",
"Q. c #4A8999",
"!. c #538998",
"~. c #7A959C",
"^. c #618690",
"/. c #4793A8",
"(. c #5699AB",
"). c #5A9EB1",
"_. c #428DA2",
"`. c #6B9CA9",
"'. c #6BA1B0",
"]. c #1288D0",
"[. c #06ADF3",
"{. c #0E95E0",
"}. c #959B86",
"|. c #888E97",
" X c #87959A",
".X c #9B9C9D",
"XX c #858B86",
"oX c #B2918C",
"OX c #9DA795",
"+X c #A9AA94",
"@X c #909FA3",
"#X c #97ACB2",
"$X c #92A7AC",
"%X c #A7AAAA",
"&X c #B7B2AC",
"*X c #A2AEB1",
"=X c #ADB9BD",
"-X c #B3B3B3",
";X c #B9BDBE",
":X c #B5AFAC",
">X c #A69FAA",
",X c #C09F86",
"<X c #C9AB84",
"1X c #CEB188",
"2X c #D4B58B",
"3X c #DABC93",
"4X c #D3B996",
"5X c #C9AE96",
"6X c #D5B8A0",
"7X c #DDC194",
"8X c #DFC398",
"9X c #E2C69A",
"0X c #E0C497",
"qX c #E8CDA5",
"wX c #EED4AA",
"eX c #EBD1A7",
"rX c #F0D7AD",
"tX c #F3DDB9",
"yX c #ECD7B5",
"uX c #D4C6AF",
"iX c #B3BDC0",
"pX c #C0C0C0",
"aX c #DFD8CD",
"sX c #FBF4E9",
"dX c #F5E4C8",
/* pixels */
"+ j % j - - + % % + - j j + + + + + + % + + + + j + j + + + - - - + + + + + + - - j % j - - j + + - j + j % + + - + - + + j j + ",
"j + j - - j + j + + + - - + j + j - - j + j - j + j + + + + + - - j + j + + + - - + j + j - + + + j + j - + + + + - + - + + - - ",
"+ j - - + + j + j + + + + j + j - - j + j + j + j + + + + + + + j + j + + + + + + + + j + + + + + + j - - + % j + j - + + - - - ",
"+ + + + + + + j + j + + j + j + - - + j % + + j - - + + + + + + + j - - : j + j + + + - - - + + + + + + + + + + j + j + j + j + ",
"- - j + j + - + j + + + @ j + + + + + % + + + + - - + + j + j + + + + - j + j + + + + + - - - + j + j - + + + - - j + j - j + j ",
"j - - j + j + - + j + + @ @ + + + j + k - - - + + + + - - j + j + + + j + j - + $ j + j + - - j + j - + - + + + - - j + % + j + ",
"+ + - - j + j + + + + + j + j + + + j + j - + + j + j - - % j + j - - + j - - + - - j + j + - + j + + j + j + + + - - + + + - j ",
"+ + + + % j + + + - + - * G G a X $ - j + - + j + j - - 8 C C I C Z C 9 q q q $ @ - - j + + + + + + + + j + j + + + + j + j - + ",
"+ j + + + + j + - + - + * H H 0 y $ - - % + + + j + @ @ 0 C C A Z I C I q q q * * + - - + + + j + j + + + j + - + - j @ j - + j ",
"j + j - + % % - + - + j * K Y Y Y 9 j % j + + & @ $ 9 I F Q ! Q Q Q ! Y Y Y Y J 8 $ $ k $ j + + j + - + + + - + - + + j @ + + + ",
"+ j % - - + % + - + j + l 9 A F Y 9 * l % j : ; 8 0 / ! ( z.z.z.x.x.x._ Q Q Q ! F H G H K 7 l @ + - j + j - + j + j + + + + + + ",
"+ + % - j + j + + + @ v u F Q ) _ ) Y U b r k 8 H Q ( ( [ x.x.x.x.x.x.l.] ] ` ` Q T T ! Y Y Y 7 % j + j + + - + j + j + - - - + ",
"j + + j % j + + @ - u Y Q ) _ _ _ ) Q A.[.].W T Q ) ` [ k.` [ ` ` ` [ ` [ ` _ _ ` ) ) ) ( Q Q 9 w * j + + + + + + j + j - - j + ",
"+ + j + j + + + + y a ~ _ x.x.] _ _ c.D.[.Z.W ) ` [ ] [ ` ` _ _ _ ) _ ` _ _ _ ` ` _ _ _ _ ) _ Q T S y k + j + + + + j + - j + j ",
"- - + j + + % j + J H ] z.x.z.] ` c.D.[.Z.W _ ` [ ` ` _ _ _ _ ` _ _ _ _ _ ` ` ] [ [ ` ] [ ` _ ) _ K I u j @ j + + + - - + + j + ",
"% - j - + + % + j F ! ] l.l.] ) ' S.].[.S.Y _ [ ` _ _ _ _ ` k.k.] ] [ ` [ [ ] ] ] [ ] ` ` ` ` [ z._ Y A # j + j + + + + + + + + ",
"+ + - - + + + + % K ! ) ] ` _ Y j.].{.A.W ) ` ] ` ` _ ` ` k.[ [ ] ] ] ` ] ] [ [ ` _ _ _ _ _ ) ) ) G I H 9 - j @ + + j + j - - + ",
"+ + + + + + + - - S ! ~ ] _ Q G E ].].j.Q ` ] ] [ [ [ k.k.k.[ [ ] ] ] ` ) _ _ ' ( T T T Q Q Q H A d 8 Y Y + @ j + + + j % j - - ",
"+ j % j % % + + - S T ~ ` ~ J 9 e &.j.W ` ] ] ] [ [ [ [ [ [ [ [ ] ` _ ~ T Y T T { 0.| T T Y F 8 y ; v 9 9 + + + + + + + j + - - ",
"j + j - - - j + k a G H ~ / a i + w H ~ l.l.` ` ` ` ` ` [ [ [ [ ` Q Q Q ~ } 0.0.oX4Xi.5...0 8 $ - - - + + + - j + j - + - + + + ",
"% j - - - j + j + * s 9 R G j + j 7 F _ z.] _ _ ( _ _ _ ` ` [ ) ~ ^  .^ ) 0.5X2X4XqX5Xd.>.& + + j % j + + - j @ j + + - + - + + ",
"+ - - - j % j + + + + p Y K + j $ 0 ! [ z.` | 0.0.^ ( _ _ ` _ ( T | oX0.} H.3X5X4X4X<Xp.<.k + + + j + j - - + j + + + + - + - + ",
"j - - + % j - - - + % 7 Y G - - ; 9 Q l.l.` 0.p.q.^ Q _ _ _ _ Q ~ 4.8X4X5XoX1.h h h 9.s.,.- @ @ + + j + j - + + + j + j + - j + ",
"% % + + + - - j + k % * 8 u - - q A Q l.[ _ 0.s.i.q.3.^ Q ( ( 6.G.oXwXwXrX4X7.d .   N p.,.z @ j - - + j + + + + j + j + + j + j ",
"+ j % j + - - + j + j + - - - + w H ) ` ` _ 0.s.s.s.w.^ ! Q ! G.4XqXrXrXrXyXaX.XX   >.p.>.; j @ j + + + j - # j + j + + j + j + ",
"- - j % j + + + + j % j - - j + p H ~ _ ` _ 0.s.g.<Xg.0.3.^ T | H.oXrXrXrXtXsX-XX   >.1Xt.,.m j + + + - - - + + j - + - + j + - ",
"- - - j + + + % + + j + % j + j u J T _ ` _ 0.s.g.3X2Xp.s.} Q Q ^ 6.tXrXyXtXsX:XX   2.9Xh.p.9.6 + + + - - + + j - + - + + + + + ",
"+ - - : + + + % + + - - j + j - y C F ) _ ( 0.s.g.7X9X2X<X .T  .6.G.yXrXrXtXsX:XX   2.9Xh.g.r.6 + + j + j + + - @ - + j + j + + ",
"+ j % j % % + j + j + - + j + + k q I Q ) _ 0.s.h.0XeXeXwX| Q G.3XeXrXrXrXyXdXuXt.9.+X9X1Xp.r.6 + - - j + j + + - + + + j @ j @ ",
"+ % j % j % - - j % j + - - - + % l 9 Y Q _ 4.w.s.2X3X0XrX4.Q q.,X4XrXrXrXrXrXwXeXeX9X9Xf.u.<.j + + - - j + j + + + + - - j @ j ",
"+ + + j + j - - + j + + + j + j % + v A Q ( ( Q  .w.g.3XrX5X,X5.Q 4.9X9X9X9X9X9X0X0X3X2Xr.= - - j + j - - j + + j + j - - + j + ",
"+ + + + j + - + + + + + j + j + + + * C Y ( ( T  .w.p.3X7X7X7X0.^ 5.0X3X0X3X8X3X7X7X1X<X,.- + j + j + + - - j - - j + j + + + j ",
"+ j + + - - % j % j - - + j % - - - + + 9 Y F u s G { i.p.p.p.p.p.p.p.p.p.p.p.p.p.p.<.% - % + + j + + + + + + + - - j + + - + - ",
"j + j + + + j + j - - + + % - - - j + j 9 F K s r ^ | i.a.a.a.a.a.a.a.a.a.a.a.a.d.u.m - + % + % - - - + + j + j + - - + - + - + ",
"+ j + + + j + j - - + + + + - - + + j @ l ; r &.:.|.>X:X&X&X:X:X&X:X&X&X&X&X:XOXB 6 k + + k % j - - + + j @ j + + + + - j + j + ",
"+ - - - % % j - - + % % j + j + + + + j + k X.&.B.#X=X=X;X;X;X=XiXiXiXiXpXpXiX%X8.b > > % - j + j + + j + j - - + + + j + j + + ",
"+ + - - - j % + + + + j % j + + - - - + j & X.*.B./.).).`.%X%X(.).).).$X;X&X;X%XXX8.:.O.b - - j + j + + j - - + + + j + j + + + ",
"+ j % j - - % - - - j + j - + + + - - - % k X.*.N.U.E./.`..X.XQ._.I.R.'.#X#X*X$X X!.:.;.%.v = % j + + - - j + j + + + j + - + - ",
"- + j + j - % j - + + j - + - + j + j - : & L *.m.U.!.~.@X%X%X X~.T.T./.(.(.(.(.Q.B.v.M.7.r.v % + + + - j + j + + - - - + + - + ",
"- + % j % j + + + % j + + - + + + j + k : e o.&.n.C.(. X$X-X-X.X.XQ.E.T.U.U.C.V.v.b.b.:.y.f.B k - @ + + + j @ + + + - + - j + j ",
"+ + + + j + + + - + - + j % j % + + j e c @.X.L ;.N.P./.`.-X-X%X%X X~.Q.C.M.o.o.o.&.;.B.}.1Xu.9.m - + - + + + + + j + j - + j + ",
"- + + - + j + - + - + + + j + j + - - x &.*.X.L ;.n.K.Y.).*X*X*X*X|.XX!.V.=.L L L o.v.B.}.2Xp.u.B = - + j + j - j + j + + + - j ",
"+ j - + - + - + - % + + + % j % - e @.O.;.n.;.;.n.n.K.Y./.).).!.Q.-.$.%.&.:.N.v.N.N.N.B.y.h.<.m v - + j + j - + + j + + + - + - ",
"j + j - + + j + j % j + j % % % - x O.;.m.L.L.U.V.n.K.Y.Y.R.Y.N.b.L t t t =.W.R.R.Y.V.C.y.f.m + + + j + j + + - + - + + - + - + ",
"+ j + + + j + j + + + j + j - + % e *.*.;.;.;.;.e.y.}.OXOXOX+Xn.m.M.M.M.M.K.R.R.R.R.C.M.#.m : - + + + j - + + + - + j + j - + + ",
"+ - - - j + j + + + + + j + j - % b &.*.*.*.*.*.y.p.h.1X3X7X7Xn.m.Y.R.R.R.R.R.R.Y.I.V.v.x % - % - + j - + - j + j + + j + j + + ",
"+ + - - + j + + - - : + + j + - - > b r r r r s r.p.g.h.h.h.<XK.V.R.R.R.R.R.R.I.C.V.m.v.x % @ - + + + + - j + j + + + + j + - + ",
"j j + - - - + - - - + + + + j - - % % * o < 3 5 9.p.p.p.p.f.p.K.C.Z.U.U.L.I.L.L.V.n.n.v.x - j % j + + + + + j + + + + - - - + j ",
"j + + + j + j + + + + + + + + + + - - - # # 1 1 n M V 2.M M M n.m.m.V.V.m.K.K.:.$.%.#.#.6 4 + j - - + + + + + @ + + + + + + j + ",
"+ + - j + j + + & j + j + - + + j j - + @ @ # o 1 1 1 f 2 1 1 ;.b.b.n.m.m.m.m.$.p f n g 1 o 4 + j + j + + j + j + + + - + j + j ",
"+ + + + j - + + j + j + - + + + + + j + + - # < o o O 1 1 o < +.O.+.+.$.$.$.%.%.f f g g 1 o # j + j - % j + j + + % - + - + j + ",
"+ + + + - - - j + j + - + + + + + j + j + + - + < O O O o o o + j o < 3 5 5 1 f g g n g 1 o # @ j + + j + j - j + j + - + + + + ",
"- j + j + - - + j + + + j + j - - + j + + + + @ # o < < < , o + @ # o 1 1 2 2 f f g f f 1 # - - - + + + j - + + j + j + + + - - ",
"+ + j + j + + + + + + j + j - - + + + + - - j + j - + + j + j + @ + j # o o O O O O o o # j - - + + + j - + + + @ j + j + j + j ",
"j + - j + j + + + + + + j - - + + + + - - j @ j + + + + + j + - - + @ 4 O o o O o o O o 4 + j + + + - + + + + - - - j + - + j + ",
"+ + + - j + + j + j - + - - + + + + + - j + j + + + + + + - + - + + @ @ + - + j + j + @ + j + + + + + j + j + + - - - + + - + j ",
"+ + + + - - + - j + j + + j + j + + + + + j + + + j + j - + - j + j - + + + j + j + - + - + j + + + + + j + j + + - j + j + + + ",
"j + j + + + + - - j + + j + j + - - - + j + + @ j + j + + - j + j - + - + j + j + + + - - + + + + + + + + j + + @ j + j @ + + + ",
"+ j + + + + + + + + + j + j + + + + - - + + + j + j - + + + + j + + - + + + j + + + + j + j + + + j + j + + + + j + j + - - j + ",
"+ + + + + j + j + + + + j + + + + j + j + + + + j - + + + + + + + + + + + @ @ = + - j + j + + + j + j + + + - - + j + + + j + j ",
"- + + + j + j + + + + j - - + + + + j @ j + - - - + + + + + + + j + j + + + - + - + + j + + + j + j + + + - + - + + - - - + j + ",
"+ + + j + j + + + + + + - j + j + @ - j + j - - + + - j + j + + + j + j + + + - + + + + + + + + j + + + - + j + j + + + - - + - ",
"+ + + + j + + + + j + j + - j + j - - - j + + + + - - - j + j + + + j + j + + + + - - - j + j - - + + + + - + j + j + j + j + + ",
"+ + + j + + + + + - j + j + - j + - - + + + + + + - - + + j + - + + + j @ + + + j + j + + j + j + + + j + j + - j + + + j + j + "
};
