/* XPM */
static char *result[] = {
/* columns rows colors chars-per-pixel */
"64 64 233 2 ",
"   c #0B280F",
".  c #0D2911",
"X  c #112C13",
"o  c #1B2D16",
"O  c #1A3612",
"+  c #1A351A",
"@  c #263619",
"#  c #2E341D",
"$  c #193524",
"%  c #0D3820",
"&  c #292921",
"*  c #352C26",
"=  c #303C21",
"-  c #453828",
";  c #492934",
":  c #5C3539",
">  c #522E38",
",  c #63383C",
"<  c #2F4B13",
"1  c #2F4F19",
"2  c #334917",
"3  c #19462C",
"4  c #2A482A",
"5  c #385137",
"6  c #3E6A3C",
"7  c #4B541D",
"8  c #524F2A",
"9  c #745834",
"0  c #646236",
"q  c #163866",
"w  c #15364C",
"e  c #6B3D42",
"r  c #703F43",
"t  c #354846",
"y  c #26665C",
"u  c #465B48",
"i  c #5D5357",
"p  c #774446",
"a  c #735047",
"s  c #4E6347",
"d  c #576857",
"f  c #586B51",
"g  c #776B59",
"h  c #747253",
"j  c #565A65",
"k  c #57696B",
"l  c #647675",
"z  c #6B7B79",
"x  c #7B7B6D",
"c  c #8C693C",
"v  c #945856",
"b  c #814C4B",
"n  c #907050",
"m  c #A87350",
"M  c #937C6C",
"N  c #AC6C64",
"B  c #A67769",
"V  c #CE7A68",
"C  c #3F8E37",
"Z  c #308F7C",
"A  c #759856",
"S  c #579871",
"D  c #71887A",
"F  c #988A54",
"G  c #B58652",
"H  c #93896E",
"J  c #A98467",
"K  c #A99678",
"L  c #B38D70",
"P  c #B4A679",
"I  c #CB8E59",
"U  c #D49865",
"Y  c #CB9574",
"T  c #E69175",
"R  c #D9A775",
"E  c #D5A771",
"W  c #E2B176",
"Q  c #E2A77B",
"!  c #A2D159",
"~  c #C2D173",
"^  c #1D468E",
"/  c #1D5595",
"(  c #1F4A98",
")  c #275094",
"_  c #1B6895",
"`  c #2F6F97",
"'  c #2658BB",
"]  c #2558A6",
"[  c #2576B4",
"{  c #4D748F",
"}  c #6A7892",
"|  c #5474BA",
" . c #416DBB",
".. c #435997",
"X. c #285CC4",
"o. c #2A66C6",
"O. c #2777CA",
"+. c #267DD1",
"@. c #406AC0",
"#. c #CE7581",
"$. c #2492BD",
"%. c #2DB9B5",
"&. c #209F9E",
"*. c #4A9190",
"=. c #778590",
"-. c #7E8DB5",
";. c #7097AB",
":. c #54B0BA",
">. c #6AA7B9",
",. c #4985A4",
"<. c #4ECEB9",
"1. c #6CD0B5",
"2. c #2787C8",
"3. c #2599C7",
"4. c #2787D3",
"5. c #2699D9",
"6. c #3595CD",
"7. c #28A7C7",
"8. c #23B9C9",
"9. c #27A8D9",
"0. c #39AAD9",
"q. c #24B7D4",
"w. c #35B8D6",
"e. c #3AB2C8",
"r. c #4D93CB",
"t. c #55B7CC",
"y. c #4AABD0",
"u. c #6AB7CD",
"i. c #7AAFE3",
"p. c #42ACE3",
"a. c #24C8CA",
"s. c #37DACB",
"d. c #2DC4D2",
"f. c #33CDD0",
"g. c #5ADBD4",
"h. c #50D1D4",
"j. c #66CBDA",
"k. c #71D7D3",
"l. c #57E5CF",
"z. c #59E4D0",
"x. c #51E1D0",
"c. c #42E0CC",
"v. c #63E6D2",
"b. c #77E9D6",
"n. c #77C9E8",
"m. c #63C6E0",
"M. c #899794",
"N. c #8D8B8E",
"B. c #AE9487",
"V. c #93B093",
"C. c #B9A78B",
"Z. c #B5B38D",
"A. c #8A95B7",
"S. c #929AB4",
"D. c #949DB9",
"F. c #8E97A8",
"G. c #A49BAD",
"H. c #96A1AC",
"J. c #9BA2BB",
"K. c #9EA2B0",
"L. c #87AAA7",
"P. c #A4A5A9",
"I. c #BBA9A8",
"U. c #A5A8B8",
"Y. c #BCB2B7",
"T. c #B5AFBA",
"R. c #CF978A",
"E. c #ED8985",
"W. c #EE9F88",
"Q. c #CAA487",
"!. c #C9B394",
"~. c #D9B995",
"^. c #CFB18C",
"/. c #EEA38A",
"(. c #EBA884",
"). c #E6BB86",
"_. c #F1B893",
"`. c #F0B28F",
"'. c #C4B8B6",
"]. c #C7B7AC",
"[. c #B8D3AC",
"{. c #A9DEA5",
"}. c #D9CE8B",
"|. c #ECC48B",
" X c #E9C189",
".X c #ECC793",
"XX c #F3CD9A",
"oX c #F1C895",
"OX c #F4D29C",
"+X c #E7D592",
"@X c #E2D3B3",
"#X c #96A9C3",
"$X c #90B5CB",
"%X c #A5ABC5",
"&X c #A9AFC8",
"*X c #A2A9C3",
"=X c #ACB3CB",
"-X c #AAB0C7",
";X c #B0B7CE",
":X c #B4B9C9",
">X c #B3B9D1",
",X c #B9BFD4",
"<X c #81D5D5",
"1X c #BBC1D5",
"2X c #BEC4D8",
"3X c #85ECD8",
"4X c #8BF4D7",
"5X c #96F3DA",
"6X c #B0EBD3",
"7X c #B6D2EA",
"8X c #B1E9ED",
"9X c #8EE0E1",
"0X c #C5CBDB",
"qX c #C5C9D8",
"wX c #CDD4DC",
"eX c #CDCCC7",
"rX c #CDD3E1",
"tX c #D0D6E3",
"yX c #D4DAE6",
"uX c #D7DDE8",
"iX c #D9DDE8",
"pX c #DBE1EA",
"aX c #DBE4E1",
"sX c #E2E6EE",
"dX c #E6E9ED",
"fX c #EAEEF3",
"gX c #E6EAF0",
"hX c #EEF1F4",
"jX c #F1F3F7",
"kX c #F4F6F9",
"lX c #FCFCFD",
"zX c #F7F8FA",
"xX c #DAE0D8",
/* pixels */
"  < . < O O         O < <                       <   <       O O O             O O <   < O O <     O <   <       O   O     < <   ",
"<   < O O <   1       O O   <   < O O <   1 O <   <           O O <   <       O O   <   < O       <   < O         O   O     O O ",
"  < O O     <   <         <   < O O <   <   <   <               <   <                 <             < O O     <   1 O     O O O ",
"              <   <     <   <   O O   <       < O O               < O O O <   <       O O O                     <   <   <   <   ",
"O O <   <   O   <         <                     O O     <   <         O <   <           O O O   <   < O       O O <   < O <   < ",
"< O O <   <   O   <               <   < O O O         O O <   <       <   < O     <   <   O O <   < O   O       O O <       <   ",
"    O O <   <           <   <       <   < O     <   < O O   <   < O O   < O O   O O <   <   O   <     <   <       O O       O < ",
"        . < .     O   O   <   O     O <   O   <   < O O       <   O               O O <                 <   <         <   < O   ",
"  <         1   O   O       O   O   O O + 5 l l D l l l z l l z l D z D z l l k k j 5 @       1   <       <   O   O <   < O   < ",
"<   < O       O   O   <   <   O     1 $ f H.2X0X0X0X0X0X0X0X0X0XqXqXwXqX0X0X1X=X#XD.=.s $ 1     <   O       O   O     <         ",
"  <   O O       O   <   < O     . . + f H.wXpXdXgXgXsXsXsXsXsXsXsXdXsXsXsXpXrX1X;X>X#X=.s o <     O <   < O   <   <             ",
"      O <   <         < O     O X 4 u =.0XdXkXkXkXzXzXjXzXzXjXjXjXzXjXjXzXkXgX0X1X>X=XU.z s $ .   <   <     O   <   <   O O O   ",
"<     <   <       O O O     <   f M.:XwXsXgXfXfXkXlXlXkXzXzXhXfXjXlXjXjXlXzXgXuXyX>X;X;X#XF.z t     <             <   < O O <   ",
"    1   1         O O     <   < F.qXpXhXzXzXlXlXlXlXlXlXlXlXlXzXlXlXlXzXhXdXpXpXpX>X>X>X;X=XJ.}   O O <   <         @   O <   < ",
"O O   <       <   <     <   < O ,XtXsXzXlXlXlXlXlXlXlXzXlXlXlXlXlXlXzXjXsXpXpXpXpX>X>X>X;X>X&XS.<   O O <   <       O O     <   ",
"  O < O         <   <     < O O ,XtXgXjXfXlXlXfXzXzXgXiXjXzXfXkXzXgXiXyXiXpXpXuXuX>X>X>X>X>X&XS.      O O <   <                 ",
"    O O           <     O O O   1XrXdXhXdXzXlXsXjXjXiXqXdXjXsXjXjXyXqXqXpXpXiXrXqX>X>X>X>X>X%XS.<   <   O O <       <   < O O   ",
"              O O O     O O     1XrXpXpXwXpXfX0XiXiXqXI.eXyXpXfXfXyX1X;X0X0X0X2X>X;X>X>X>X>X&XS.  <   <       <       <   < O O ",
"  <   <         O O O   <   <   1XrXyXwX].1XwX!.'.0X:XQ.].0XuXiXyXqX'.I.=X>X>X>X>X>X>X;X-X=X&XS.O O <                   <   O O ",
"<   < O O O 1   < O O O   <   < 1XrXrX-XN C.I.I Q.].].^.I.,X0XeX'.T.B.B J.=X>X>X>X>X>X&X#X-X%XS.O O O       O <   < O   O       ",
"  < O O O <   <     1   <   1   1XrXqXT.L m n n n P oX X!.P.M.H M N.J L &X,X,X>X;X>X,X>X#X-X%XS.<   <     O <   <     O   O     ",
"  O O O <   <         <   <   < 1XwXqXP.B g i 6 8 K +XXX).L l 8 t k n K 1XrX0X;X&X>X,XqX%X&X&XS.  <   < O O   <         O   O   ",
"< O O     < O O O       <   O O 1XwXqXK.h M.H.C A ~.+XOXoX).P A S N.x M 0XtXrX&XJ.>XqXrX>X>X&XS.    <   < O       <   <   O <   ",
"          O O 1   1       O O O ,XrXwXU.J eXdX! ~ OXOXOXOXOXOX! {.xX!.B.0XyXyX;XD.>X2XrX1X>X%XS.O O   <         <   <     <   < ",
"  <   1   O O   <   <   O O O   >X,X>XP.Y @X@X+X+XOXOXOXOXOXOX+X+XOX).^.0XyXiX0X=XrXtXtX1X>X%XS.<       < O O <   <     <   <   ",
"O O <   <         <   < O O <   >X>X-XD.Y `.OXOXOXOXOXW oXOXOXOXOXoX`.R.0XtXpX0X>XuXuXtX,X>X&XS.      O O O     < O   O   <   O ",
"O O O <             <     <   < >X>X&XG.R.W._.XXXXOXOX|.oXOXXXXXoX`.T R.0XyXpX0X%X0XrXrX,X>X&XS.      O O     @ O   O           ",
"  O O O             O O <   < O >X>X=XG.V E.E.oX|._.XXOXXX_.`.oX_.E.T E.0XyXuX,XJ.,X2XrX=X=X%XS.    <   <     O   O   <   <     ",
"  1   <       <   <   O   <     >XqX,XG.B T T oX_.W.W.W.W././._._./.T R.2XyXpX2X%X0XwX0X%X-X%XS.  O O <   <     O       <   <   ",
"    <   <   O O <   <   O O O   ,X0X0XK.n m I R R Q /././.(.).Q R Y U Y 0XyXpX2X*XyXyX0X*X-X%XS.    O O <   <         O O <   < ",
"      1   < O O   1       <   < ,XrX0XH.j g B M B Q.).oXoX~.Q.L B B B B.2XrXuX1XJ.pXuX0X*X-X-XS.<   < O O <     <   < O O   <   ",
"        <   O           <   <   ,XrX0X#Xe.2.O.O.O.F.~.oX.XP.6.2.O.2.o.o.A.#X1X=XS.pXyX1X*X-XU.G.  <     O O < O O <   <       < ",
"  <     O O   1 . < O O   <   O 1XwX2X#X .4.5.a.8.;.E  XW N. .4.q.8.$.' | A.*X*XS.iXrX&XJ.&X%XS.<               O O <     O   O ",
"<   <       <   < O O       O O U.1X1XJ.y.k.4X4Xv.f.y.L.;.r.y.j.4X3Xz.6.| A.*X*XS.tX0X&XJ.*XS.F.+ O O     <   <   O O   O   O   ",
"  <       <   < O O         O O d >.#X$Xj.3X4X4Xb.h.9.:.6.0.h.b.4X4Xb.h.| -.*X*XS.2X,X&XD.A.} j O O     <   <         O <   <   ",
"  O O O     < O O       <   1   3 *.u.t.h.v.v.l.l.y.9.9.5.0.h.x.z.z.z.y. .-.*X*XA.>X;X*X-.| { $ <     <   < O O       <   <     ",
"    O O O 1           <   <     3 Z a.$.3.a.a.a.a.9.5.q.4.4.q.8.a.a.7.O.| A.D.J.F.=X%XA.|  .) 4   <     < O O       <   <       ",
"  <   < O O   O O O <   < O     3 y Z *.` $.3.3.3.+.4.5.5.4.4.3.7.3._ ] | -.S.G.B.U.J.A.N.} j + <     O O <   <       <   O   O ",
"O   <   < O   1 O     < O   O   2 + 5 h N.` / / / ] / _ _ ] / / / _ { >.u.:.:.M.J C.Q.!.L m c @       X <   <     O O O     O   ",
"O     1   <         <     O       2 2 c ).F.} { } { { { } { { { { ,.>.k.t.8.$.D m W ).oXQ I c #           <         O   O <   < ",
"        <       O   O   1   <     X 8 c W xXtX7X0X7X9X8X8X8X3Xb.k.u.r.' X.' ^ i m |.|.OX XW F #   O   O           <   < O   <   ",
"O     O   <   O   O       <   <   @ 7 c U >.p.y.0.0.9.w.s.s.s.w.6.2.o.X.X.X.^ i m U R |. XW F 7 O   O   <   < O <   <       O < ",
"  < O   O   O   O .         1   O O 7 n E t.5.a.f.w.q.q.s.f.a.a.9.5.o.o.X.' ^ j F U R ).[.^.F <   O   <   < O     <       O   O ",
"<   < O     <   <   <   <       O @ 5 V.[.y.9.a.x.h.9.q.z.z.f.w.9.5.O.X.X.' ^ l L.eX@XeX{.1.S 3     <   <     O   O     O   O   ",
"  <       <   <       <   < O     X 6 S <.e.5.w.v.n.9.9.b.5X3Xx.a.7.O.X.X.X.^ ` <.1.1.k.1.<.Z 4       < O       O   <   < O     ",
"  O O O 1   <           <   1 O   4 = A P y.9.f.z.n.p.9.b.5X4Xx.8.2.O.o.X.X.' { x P Z.[.Z.K h @ O   < O   O <   <     <   <     ",
"    O O   <     O O O     <   O O X 7 c I ;.5.a.c.g.h.p.b.5Xb.c.8.3.2.O.X.X.X.) j G Y |.E G c 2         O <   <         <   O   ",
"< <   O O O   O O O         < O O . O 8 m H =.a.a.s.z.k.g.v.v.c.a.q.9.4.X.X.X.' ( i n Y F 9 7 O <           <         O O O   < ",
"<       <   <                     O O # 7 m I 5.9.q.d.x.s.s.l.c.a.q.9.4.O.o.' o.' q t 9 7 7   < O O                         <   ",
"    O <   <       <   <   O     < < O   O c I 4.6.0.9.w.d.d.d.d.d.q.9.5.O.o.o.' X.q w O 7   <   <   <     <   <       O   <   < ",
"        < O     <   <   O           <     c G #Xi.n.n.n.g.j.n.n.n.n.t.m.u.r.r.6.2._ y     @   <   < O   <   <       O   O   <   ",
"        O O O <   1   O           <   <   9 c dXhXhXhXjXaX6XsXpXaXtX6X6X6X6X6Xb.<.%.Z           <     <   < O <   <   O         ",
"O <   <   O O   <       <   1 O O   <     @ # Y ^.~.~.!.C.B.B d t s H P ~.!.Z.B.H h s . <   O O O       < O     <   <       O O ",
"    <   <             <   < O O         O O 2 m N B B v a p 8 *   + 9 m N N v a 9 > - <   < O O       < O         <   <   <   < ",
"<   O <   <             < O O         O O < . v N N N v , > ; * O $ 8 v N N v , > ; *   <   <       O         O O O <   O   <   ",
"      O <     <   < O   O O           O <   < , p v v p : ; * &   o > p v v b , > ; *     <           <   <     O O O     O   < ",
"        O O   O <   <     <   <           <   * , , , : ; ; * 2   2 # ; p e > ; ; & @   O   <           <   <     O <   <       ",
"<   <         O X <     <   <   O O O   <     . 7 * - & o & <   < O   @ * 7 & * &     O O                 <       <   <         ",
"  <                   <   <         O O       <   < O         <     O       < .       <   <       <   <         <   @   O O <   ",
"          <   <         <         <   <         < O                       . . O   O <   <       <   <       O O   <       <   < ",
"O       <   <         < O O         <   <   O O O               <   <       O   O     <       <   <       O   O     O O O   <   ",
"      <   <             O <   <     O <   < O O     O <   <       <   <       O                 <       O   <   <       O O   O ",
"        <         <   <   O <   @ O O O <         O O O <   <       <   <         O O O <   < O O         O   <   <   <   <     ",
"      <           O <   <   O <   O O             O O     <   O       <         <   <     <   <       <   <   O <       <   <   "
};
